<svg width="682" height="496" viewBox="0 0 682 496" fill="none" xmlns="http://www.w3.org/2000/svg">
<g clip-path="url(#clip0)">
<path opacity="0.1" d="M48.1974 400.467C66.9517 400.467 82.1552 395.06 82.1552 388.39C82.1552 381.72 66.9517 376.314 48.1974 376.314C29.443 376.314 14.2396 381.72 14.2396 388.39C14.2396 395.06 29.443 400.467 48.1974 400.467Z" fill="black"/>
<path opacity="0.1" d="M596.789 450.396C615.543 450.396 630.746 444.989 630.746 438.319C630.746 431.65 615.543 426.243 596.789 426.243C578.034 426.243 562.831 431.65 562.831 438.319C562.831 444.989 578.034 450.396 596.789 450.396Z" fill="black"/>
<path opacity="0.1" d="M402.128 13.9107C350.451 33.8748 294.436 34.8032 242.405 16.009C168.664 -10.6198 72.3601 -17.4356 36.6743 104.591C-24.2308 313.07 100.371 387.484 100.371 387.484C100.371 387.484 187.364 406.988 235.531 442.229C303.952 492.286 387.745 509.02 466.677 485.546C517.154 470.534 560.416 445.905 572.784 405.607C607.376 292.902 585.416 225.16 648.019 195.444C710.622 165.728 675.789 55.6428 631.267 53.1445C586.744 50.6461 481.853 76.1805 449.404 25.391C437.836 7.35916 420.14 6.94402 402.128 13.9107Z" fill="#D35238"/>
<path d="M595.415 440.033C595.415 440.033 604.471 409.207 593.71 386.518C589.127 377.031 587.745 366.312 589.771 355.972C590.771 351.07 592.218 346.269 594.095 341.631" stroke="#535461" stroke-width="2" stroke-miterlimit="10"/>
<path d="M587.394 327.298C587.394 331.072 594.231 342.031 594.231 342.031C594.231 342.031 601.067 331.079 601.067 327.298C601.067 325.483 600.347 323.743 599.064 322.46C597.781 321.177 596.041 320.456 594.227 320.456C592.413 320.456 590.673 321.177 589.39 322.46C588.107 323.743 587.386 325.483 587.386 327.298H587.394Z" fill="#38D39F"/>
<path d="M576.09 348.228C578.142 351.398 589.839 356.878 589.839 356.878C589.839 356.878 589.627 343.963 587.575 340.793C587.087 340.039 586.455 339.389 585.716 338.88C584.976 338.37 584.144 338.011 583.266 337.823C582.388 337.635 581.482 337.622 580.599 337.785C579.715 337.947 578.873 338.282 578.119 338.77C577.366 339.259 576.716 339.89 576.206 340.63C575.697 341.369 575.338 342.202 575.15 343.08C574.962 343.958 574.949 344.865 575.112 345.748C575.274 346.632 575.609 347.474 576.097 348.228H576.09Z" fill="#38D39F"/>
<path d="M576.58 383.982C579.953 385.68 592.812 384.511 592.812 384.511C592.812 384.511 586.111 373.468 582.738 371.77C581.119 370.953 579.241 370.813 577.519 371.381C575.797 371.948 574.371 373.177 573.554 374.796C572.737 376.416 572.597 378.294 573.165 380.016C573.732 381.739 574.961 383.165 576.58 383.982Z" fill="#38D39F"/>
<path d="M583.047 410.958C586.065 413.223 598.954 414.219 598.954 414.219C598.954 414.219 594.215 402.203 591.182 399.961C589.724 398.882 587.897 398.427 586.103 398.695C584.31 398.963 582.696 399.933 581.617 401.391C580.538 402.85 580.083 404.677 580.351 406.471C580.619 408.265 581.589 409.879 583.047 410.958Z" fill="#38D39F"/>
<path d="M604.191 357.61C601.482 360.244 588.858 362.969 588.858 362.969C588.858 362.969 591.952 350.432 594.661 347.798C595.962 346.534 597.711 345.838 599.525 345.864C601.338 345.891 603.067 346.636 604.331 347.937C605.595 349.239 606.29 350.989 606.264 352.803C606.238 354.617 605.492 356.346 604.191 357.61Z" fill="#38D39F"/>
<path d="M611.353 389.243C607.98 390.941 595.121 389.771 595.121 389.771C595.121 389.771 601.822 378.729 605.195 377.068C606.814 376.252 608.691 376.112 610.414 376.679C612.136 377.247 613.562 378.476 614.379 380.095C615.195 381.715 615.335 383.592 614.768 385.315C614.2 387.037 612.972 388.464 611.353 389.281V389.243Z" fill="#38D39F"/>
<path d="M614.092 420.952C611.074 423.216 598.185 424.212 598.185 424.212C598.185 424.212 602.924 412.196 605.957 409.954C607.415 408.875 609.242 408.42 611.036 408.688C612.83 408.956 614.443 409.926 615.522 411.385C616.601 412.843 617.056 414.67 616.788 416.464C616.52 418.259 615.55 419.873 614.092 420.952Z" fill="#38D39F"/>
<path d="M48.2125 388.481C48.2125 388.481 67.5986 322.724 44.5903 274.267C34.9312 253.94 31.7618 231.131 36.1914 209.076C38.3269 198.615 41.4161 188.373 45.4204 178.477" stroke="#535461" stroke-width="2" stroke-miterlimit="10"/>
<path d="M31.1054 147.87C31.1054 155.931 45.6997 179.314 45.6997 179.314C45.6997 179.314 60.2864 155.916 60.2864 147.87C60.2864 143.999 58.7488 140.286 56.0118 137.548C53.2749 134.811 49.5628 133.273 45.6921 133.273C41.8215 133.273 38.1093 134.811 35.3724 137.548C32.6354 140.286 31.0978 143.999 31.0978 147.87H31.1054Z" fill="#38D39F"/>
<path d="M6.98019 192.531C11.3645 199.324 36.3197 210.993 36.3197 210.993C36.3197 210.993 35.8669 183.428 31.4826 176.665C29.3378 173.515 26.0461 171.328 22.3109 170.573C18.5758 169.818 14.6935 170.554 11.4937 172.624C8.29386 174.694 6.03039 177.933 5.187 181.65C4.34361 185.367 4.98718 189.267 6.98019 192.516V192.531Z" fill="#38D39F"/>
<path d="M8.02908 268.855C15.2281 272.485 42.6735 269.979 42.6735 269.979C42.6735 269.979 28.3358 246.415 21.1745 242.807C19.4631 241.944 17.5984 241.426 15.687 241.283C13.7755 241.141 11.8547 241.376 10.0342 241.976C8.21373 242.576 6.52921 243.529 5.07685 244.78C3.62448 246.031 2.4327 247.556 1.56956 249.268C0.706423 250.98 0.188825 252.845 0.0463176 254.757C-0.0961896 256.669 0.139187 258.59 0.739009 260.411C1.9504 264.088 4.57272 267.134 8.02908 268.877V268.855Z" fill="#38D39F"/>
<path d="M21.8009 326.422C28.2831 331.215 55.7587 333.381 55.7587 333.381C55.7587 333.381 45.6468 307.719 39.1571 302.948C36.045 300.646 32.146 299.675 28.318 300.248C24.4899 300.822 21.0463 302.893 18.7447 306.005C16.4432 309.118 15.4721 313.018 16.0453 316.847C16.6184 320.676 18.6888 324.12 21.8009 326.422Z" fill="#38D39F"/>
<path d="M66.9647 212.525C61.1843 218.141 34.2445 223.96 34.2445 223.96C34.2445 223.96 40.8399 197.195 46.6202 191.58C49.3971 188.877 53.1336 187.389 57.0076 187.442C60.8817 187.495 64.576 189.085 67.2778 191.863C69.9797 194.64 71.4678 198.378 71.4147 202.253C71.3616 206.127 69.7718 209.823 66.9949 212.525H66.9647Z" fill="#38D39F"/>
<path d="M82.2457 280.086C75.0467 283.717 47.6013 281.211 47.6013 281.211C47.6013 281.211 61.939 257.646 69.1003 254.038C70.8117 253.175 72.6764 252.657 74.5879 252.515C76.4993 252.372 78.4201 252.608 80.2406 253.208C82.0611 253.807 83.7456 254.76 85.198 256.011C86.6503 257.262 87.8421 258.787 88.7053 260.499C89.5684 262.211 90.086 264.076 90.2285 265.988C90.371 267.9 90.1356 269.821 89.5358 271.642C88.936 273.463 87.9835 275.148 86.7326 276.601C85.4818 278.053 83.9572 279.245 82.2457 280.109V280.086Z" fill="#38D39F"/>
<path d="M88.094 347.76C81.6118 352.553 54.1362 354.719 54.1362 354.719C54.1362 354.719 64.2481 329.056 70.7378 324.286C73.8499 321.984 77.7489 321.013 81.5769 321.586C85.405 322.159 88.8486 324.23 91.1502 327.343C93.4518 330.456 94.4228 334.356 93.8496 338.185C93.2765 342.014 91.2061 345.458 88.094 347.76Z" fill="#38D39F"/>
<path d="M286.113 226.277L244.058 220.828C242.353 220.609 241.04 219.96 241.085 219.394C241.16 218.828 242.594 218.563 244.337 218.812L286.302 224.888C287.456 225.055 288.332 225.492 288.279 225.877C288.226 226.24 287.26 226.428 286.113 226.277Z" fill="#38D39F"/>
<path d="M286.377 226.994L244.194 222.632C242.481 222.458 241.025 222.775 240.972 223.341C240.919 223.907 242.285 224.504 243.99 224.654L286.249 228.428C287.411 228.534 288.362 228.308 288.399 227.923C288.43 227.515 287.532 227.115 286.377 226.994Z" fill="#38D39F"/>
<path d="M349.659 258.733L391.706 253.284C393.412 253.065 394.725 252.416 394.68 251.849C394.604 251.283 393.17 251.019 391.427 251.268L349.463 257.344C348.309 257.51 347.433 257.948 347.486 258.333C347.539 258.695 348.505 258.884 349.659 258.733Z" fill="#38D39F"/>
<path d="M349.387 259.45L391.571 255.087C393.284 254.914 394.74 255.231 394.793 255.797C394.846 256.363 393.48 256.959 391.774 257.11L349.516 260.884C348.354 260.99 347.403 260.763 347.365 260.378C347.335 259.971 348.233 259.571 349.387 259.45Z" fill="#38D39F"/>
<path d="M210.561 303.907H200.305V450.985H210.561V303.907Z" fill="#40414D"/>
<path d="M434.546 303.907H424.291V450.985H434.546V303.907Z" fill="#40414D"/>
<path d="M196.389 291.936H433.339C437.742 291.936 441.964 293.685 445.078 296.8C448.191 299.914 449.94 304.137 449.94 308.541V310.745H179.787V308.541C179.787 304.137 181.537 299.914 184.65 296.8C187.763 293.685 191.986 291.936 196.389 291.936Z" fill="#DFE6F5"/>
<path opacity="0.1" d="M195.634 291.936H432.584C436.987 291.936 441.21 293.685 444.323 296.8C447.437 299.914 449.186 304.137 449.186 308.541V310.745H179.033V308.541C179.033 304.137 180.782 299.914 183.895 296.8C187.009 293.685 191.231 291.936 195.634 291.936Z" fill="black"/>
<path d="M196.389 288.509H433.339C437.742 288.509 441.964 290.259 445.078 293.373C448.191 296.487 449.94 300.711 449.94 305.115V307.319H179.787V305.115C179.787 300.711 181.537 296.487 184.65 293.373C187.763 290.259 191.986 288.509 196.389 288.509Z" fill="#DFE6F5"/>
<path d="M314.864 276.538C326.196 276.538 335.382 267.35 335.382 256.016C335.382 244.681 326.196 235.493 314.864 235.493C303.532 235.493 294.346 244.681 294.346 256.016C294.346 267.35 303.532 276.538 314.864 276.538Z" fill="#FFD77C" stroke="#FFAB50" stroke-miterlimit="10"/>
<path d="M314.864 272.281C323.845 272.281 331.126 264.999 331.126 256.016C331.126 247.033 323.845 239.75 314.864 239.75C305.883 239.75 298.602 247.033 298.602 256.016C298.602 264.999 305.883 272.281 314.864 272.281Z" fill="#FFD77C" stroke="#FFAB50" stroke-miterlimit="10"/>
<path d="M314.864 268.409C321.707 268.409 327.255 262.861 327.255 256.016C327.255 249.171 321.707 243.622 314.864 243.622C308.021 243.622 302.473 249.171 302.473 256.016C302.473 262.861 308.021 268.409 314.864 268.409Z" fill="#FFD77C" stroke="#FFAB50" stroke-miterlimit="10"/>
<path d="M314.864 262.983C318.711 262.983 321.829 259.863 321.829 256.016C321.829 252.168 318.711 249.049 314.864 249.049C311.017 249.049 307.899 252.168 307.899 256.016C307.899 259.863 311.017 262.983 314.864 262.983Z" fill="#FFD77C" stroke="#FFAB50" stroke-miterlimit="10"/>
<path d="M302.896 287.656C314.227 287.656 323.414 278.468 323.414 267.134C323.414 255.8 314.227 246.611 302.896 246.611C291.564 246.611 282.378 255.8 282.378 267.134C282.378 278.468 291.564 287.656 302.896 287.656Z" fill="#FFD77C" stroke="#FFAB50" stroke-miterlimit="10"/>
<path d="M302.896 283.399C311.877 283.399 319.158 276.117 319.158 267.134C319.158 258.151 311.877 250.868 302.896 250.868C293.914 250.868 286.634 258.151 286.634 267.134C286.634 276.117 293.914 283.399 302.896 283.399Z" fill="#FFD77C" stroke="#FFAB50" stroke-miterlimit="10"/>
<path d="M302.896 279.527C309.739 279.527 315.286 273.979 315.286 267.134C315.286 260.289 309.739 254.74 302.896 254.74C296.052 254.74 290.505 260.289 290.505 267.134C290.505 273.979 296.052 279.527 302.896 279.527Z" fill="#FFD77C" stroke="#FFAB50" stroke-miterlimit="10"/>
<path d="M302.896 274.1C306.742 274.1 309.861 270.981 309.861 267.134C309.861 263.286 306.742 260.167 302.896 260.167C299.049 260.167 295.93 263.286 295.93 267.134C295.93 270.981 299.049 274.1 302.896 274.1Z" fill="#FFD77C" stroke="#FFAB50" stroke-miterlimit="10"/>
<path d="M326.832 287.656C338.164 287.656 347.35 278.468 347.35 267.134C347.35 255.8 338.164 246.611 326.832 246.611C315.5 246.611 306.314 255.8 306.314 267.134C306.314 278.468 315.5 287.656 326.832 287.656Z" fill="#FFD77C" stroke="#FFAB50" stroke-miterlimit="10"/>
<path d="M326.832 283.399C335.813 283.399 343.094 276.117 343.094 267.134C343.094 258.151 335.813 250.868 326.832 250.868C317.851 250.868 310.57 258.151 310.57 267.134C310.57 276.117 317.851 283.399 326.832 283.399Z" fill="#FFD77C" stroke="#FFAB50" stroke-miterlimit="10"/>
<path d="M326.832 279.527C333.675 279.527 339.223 273.979 339.223 267.134C339.223 260.289 333.675 254.74 326.832 254.74C319.989 254.74 314.441 260.289 314.441 267.134C314.441 273.979 319.989 279.527 326.832 279.527Z" fill="#FFD77C" stroke="#FFAB50" stroke-miterlimit="10"/>
<path d="M326.832 274.1C330.679 274.1 333.797 270.981 333.797 267.134C333.797 263.286 330.679 260.167 326.832 260.167C322.985 260.167 319.867 263.286 319.867 267.134C319.867 270.981 322.985 274.1 326.832 274.1Z" fill="#FFD77C" stroke="#FFAB50" stroke-miterlimit="10"/>
<path d="M272.115 261.156H357.605V265.171C357.605 269.136 356.825 273.062 355.308 276.725C353.791 280.388 351.567 283.716 348.765 286.52C345.962 289.323 342.634 291.547 338.972 293.065C335.31 294.582 331.385 295.363 327.421 295.363H302.3C298.336 295.363 294.411 294.582 290.748 293.065C287.086 291.547 283.759 289.323 280.956 286.52C278.153 283.716 275.929 280.388 274.412 276.725C272.896 273.062 272.115 269.136 272.115 265.171V261.156Z" fill="#38D39F"/>
<path opacity="0.1" d="M349.893 261.148C349.671 270.067 345.972 278.546 339.587 284.776C333.202 291.006 324.636 294.494 315.717 294.495H298.745C301.221 295.06 303.752 295.349 306.291 295.355H323.391C327.883 295.357 332.332 294.474 336.483 292.756C340.634 291.038 344.406 288.518 347.583 285.342C350.761 282.165 353.281 278.393 355.001 274.242C356.72 270.091 357.605 265.642 357.605 261.148H349.893Z" fill="black"/>
<path d="M429.422 426.182V415.925H207.142V426.182H429.422Z" fill="#40414D"/>
<path d="M123.802 380.103H114.83V461.755H123.802V380.103Z" fill="#40414D"/>
<path d="M194.669 380.103H185.696V461.755H194.669V380.103Z" fill="#40414D"/>
<path d="M201.853 366.645C201.853 372.094 183.379 376.517 160.59 376.517C137.801 376.517 120.226 372.102 120.226 366.645C120.226 361.188 137.801 356.772 160.59 356.772C183.379 356.772 201.853 361.218 201.853 366.645Z" fill="#F6C6CD"/>
<path d="M107.654 366.637H201.845V374.864C201.845 376.966 201.01 378.982 199.524 380.468C198.038 381.955 196.023 382.79 193.921 382.79H121.237C117.634 382.79 114.179 381.358 111.632 378.81C109.085 376.262 107.654 372.807 107.654 369.204V366.637Z" fill="#40414D"/>
<path d="M91.6583 272.229L93.6015 271.79C94.9681 271.482 96.4013 271.729 97.5857 272.477C98.7701 273.226 99.6088 274.414 99.9173 275.781L123.442 380.021L120.497 380.686C118.026 381.244 115.434 380.797 113.292 379.443C111.15 378.09 109.633 375.941 109.075 373.468L87.6539 278.55C87.5009 277.872 87.4832 277.17 87.6017 276.485C87.7202 275.8 87.9727 275.145 88.3447 274.558C88.7167 273.971 89.2009 273.463 89.7695 273.063C90.3381 272.664 90.9799 272.38 91.6583 272.229Z" fill="#40414D"/>
<path d="M507.427 463.205H516.399V381.552H507.427V463.205Z" fill="#40414D"/>
<path d="M436.561 463.205H445.533V381.552H436.561V463.205Z" fill="#40414D"/>
<path d="M429.392 368.094C429.392 373.544 447.865 377.967 470.654 377.967C493.444 377.967 511.019 373.551 511.019 368.094C511.019 362.637 493.436 358.199 470.654 358.199C447.873 358.199 429.392 362.644 429.392 368.094Z" fill="#F6C6CD"/>
<path d="M509.993 384.246H437.308C435.207 384.246 433.191 383.411 431.705 381.925C430.219 380.439 429.384 378.423 429.384 376.321V368.094H523.576V370.66C523.576 374.264 522.145 377.719 519.597 380.267C517.05 382.815 513.595 384.246 509.993 384.246Z" fill="#40414D"/>
<path d="M510.745 382.134L507.801 381.469L531.329 277.215C531.637 275.848 532.476 274.659 533.66 273.911C534.845 273.163 536.278 272.916 537.645 273.224L539.588 273.663C540.954 273.971 542.142 274.81 542.891 275.995C543.639 277.18 543.886 278.613 543.577 279.98L522.153 374.914C521.596 377.383 520.081 379.531 517.943 380.884C515.804 382.238 513.215 382.688 510.745 382.134Z" fill="#40414D"/>
<path d="M513.939 336.31L516.588 335.472C516.588 335.472 512.06 305.22 512.106 278.108C512.106 277.354 512.106 276.546 512.106 275.769C512.158 274.078 512.219 272.402 512.302 270.764C512.407 268.666 512.43 266.666 512.415 264.726C512.664 238.618 502.379 227.591 502.379 227.591C502.379 227.591 490.305 210.366 483.068 207.015C482.442 205.053 481.725 202.532 481.091 199.603C481.325 199.445 481.551 199.286 481.77 199.12C484.759 196.903 487.618 194.516 490.335 191.972C494.048 188.493 497.609 184.251 497.413 179.465C497.434 179 497.418 178.533 497.368 178.069C496.681 172.295 490.682 167.947 488.26 162.475C486.222 157.879 486.833 152.761 485.053 148.097C483.272 143.432 477.054 139.092 472.36 141.545C470.632 142.451 469.59 144.051 468.149 145.266C464.572 148.285 458.807 148.565 453.917 147.191C449.027 145.817 447.578 140.217 440.741 140.201C441.348 140.405 441.929 140.681 442.47 141.024C441.898 140.928 441.321 140.877 440.741 140.873C442.132 141.313 443.365 142.147 444.292 143.274C445.219 144.4 445.799 145.771 445.963 147.221C445.953 147.403 445.933 147.584 445.903 147.764C443.171 149.236 439.579 148.398 436.304 148.346C433.029 148.293 429.301 149.946 429.626 152.625C429.571 152.93 429.571 153.242 429.626 153.546C430.056 155.576 432.773 157.109 433.105 158.988C433.105 159.041 433.105 159.086 433.105 159.139C427.044 162.168 420.487 164.081 413.749 164.785C413.53 164.785 413.628 165.049 413.945 165.434H413.749C412.519 165.562 421.121 172.363 422.102 172.808C425.694 174.439 429.988 175.639 433.791 176.892L434.123 176.997C432.842 179.975 432.182 183.183 432.184 186.425C432.184 198.048 440.538 207.815 451.849 210.578C453.962 213.046 456.181 215.756 458.203 218.45H458.06C458.06 218.45 445.058 235.75 445.473 261.586C445.436 264.824 445.607 268.061 445.986 271.278C437.625 270.802 419.657 268.598 405.991 258.59C387.556 245.102 366.993 249.147 371.279 257.239C375.565 265.33 397.517 272.07 401.056 272.749C401.388 272.81 402.158 272.991 403.26 273.263C398.898 274.085 395.91 275.527 396.091 277.467C396.445 281.173 415.235 292.978 426.577 293.649C434.071 294.095 443.088 296.404 450.204 298.435C450.891 313.946 447.141 318.595 447.141 318.595C447.141 318.595 448.257 319.282 450.106 320.256L449.314 322.52C444.711 325.177 439.036 327.947 433.874 329.064C427.297 330.416 420.903 332.544 414.828 335.404L389.299 347.745C387.019 348.803 385.047 350.425 383.568 352.457C382.089 354.49 381.153 356.866 380.847 359.361C380.289 364.592 381.866 371.128 390.408 376.314C390.937 380.563 393.533 385.522 400.347 390.066C413.553 398.851 448.257 425.171 452.981 428.764C453.072 435.187 452.227 448.071 444.303 450.079C434.372 452.6 442.364 462.155 450.393 461.778C452.298 462.499 454.372 462.651 456.362 462.216C464.874 460.193 496.07 449.384 498.198 433.217C498.286 432.516 498.327 431.81 498.319 431.103C498.442 428.347 497.755 425.615 496.342 423.246C496.674 423.977 496.945 424.734 497.149 425.51C494.568 419.623 488.282 415.925 483.392 413.841C483.392 413.789 483.392 413.728 483.392 413.675C482.638 413.381 481.883 413.14 481.264 412.921C481.277 412.483 481.244 412.046 481.166 411.615L432.244 377.899C432.244 377.899 453.517 360.365 475.499 363.067C497.481 365.769 500.982 361.776 500.982 361.776C500.982 361.776 512.256 351.051 513.388 338.703L514.098 338.514C514.098 338.514 514.045 337.736 513.939 336.31Z" fill="url(#paint0_linear)"/>
<path d="M454.196 424.129C454.196 424.129 456.196 446.146 446.19 448.818C436.184 451.49 445.526 462.163 453.525 460.14C461.524 458.117 490.886 447.46 492.886 431.458C494.885 415.457 472.873 410.105 472.873 410.105L454.196 424.129Z" fill="#B8616E"/>
<path opacity="0.05" d="M454.196 424.129C454.196 424.129 456.196 446.146 446.19 448.818C436.184 451.49 445.526 462.163 453.525 460.14C461.524 458.117 490.886 447.46 492.886 431.458C494.885 415.457 472.873 410.105 472.873 410.105L454.196 424.129Z" fill="black"/>
<path d="M458.218 424.793C458.218 424.793 460.218 446.811 450.212 449.482C440.206 452.154 449.548 462.827 457.547 460.804C465.546 458.781 494.908 448.124 496.908 432.122C498.907 416.121 476.895 410.77 476.895 410.77L458.218 424.793Z" fill="#B8616E"/>
<path opacity="0.1" d="M478.895 411.449L460.233 425.465C460.233 425.465 460.316 426.416 460.369 427.933C467.417 426.001 482.774 420.869 483.008 412.838C481.666 412.293 480.292 411.829 478.895 411.449Z" fill="black"/>
<path d="M467.221 219.605H459.214V225.613H467.221V219.605Z" fill="#F8BDC5"/>
<path d="M459.554 316.686C459.554 316.686 446.839 326.679 436.395 329.049C430.185 330.393 424.166 332.5 418.473 335.321L394.453 347.534C392.272 348.631 390.401 350.259 389.011 352.267C387.622 354.275 386.758 356.6 386.5 359.029C385.813 365.822 388.545 374.759 404.844 380.072L456.211 422.778L472.224 409.434L417.522 367.407L459.554 341.382V316.686Z" fill="#758AC8"/>
<path opacity="0.1" d="M459.554 316.686C459.554 316.686 446.839 326.679 436.395 329.049C430.185 330.393 424.166 332.5 418.473 335.321L394.453 347.534C392.272 348.631 390.401 350.259 389.011 352.267C387.622 354.275 386.758 356.6 386.5 359.029C385.813 365.822 388.545 374.759 404.844 380.072L456.211 422.778L472.224 409.434L417.522 367.407L459.554 341.382V316.686Z" fill="black"/>
<path d="M452.212 271.987C452.212 271.987 427.528 272.651 410.18 259.307C392.831 245.962 373.49 249.962 377.489 257.971C381.489 265.979 402.173 272.651 405.508 273.315C408.844 273.98 456.875 287.332 456.875 287.332L452.212 271.987Z" fill="#F8BDC5"/>
<path opacity="0.05" d="M452.212 271.987C452.212 271.987 427.528 272.651 410.18 259.307C392.831 245.962 373.49 249.962 377.489 257.971C381.489 265.979 402.173 272.651 405.508 273.315C408.844 273.98 456.875 287.332 456.875 287.332L452.212 271.987Z" fill="black"/>
<path d="M454.883 310.693L446.876 334.717C446.876 334.717 401.849 362.41 398.174 366.079C395.321 368.932 391.503 380.095 404.844 389.432C418.186 398.769 454.875 428.137 454.875 428.137C454.875 428.137 482.894 422.099 480.895 410.777L434.863 377.416C434.863 377.416 454.875 360.056 475.559 362.735C496.243 365.415 499.579 361.399 499.579 361.399C499.579 361.399 515.592 345.367 510.249 330.045C504.907 314.723 454.883 310.693 454.883 310.693Z" fill="#758AC8"/>
<path d="M444.877 201.958C444.877 201.958 467.561 226.647 466.225 233.984C464.889 241.32 484.238 212.631 484.238 212.631C484.238 212.631 478.201 197.95 479.567 181.934L444.877 201.958Z" fill="#F8BDC5"/>
<path opacity="0.1" d="M464.67 224.602C466.218 222.967 467.847 221.413 469.553 219.945C472.966 217.145 476.098 214.018 478.902 210.608C483.574 204.57 500.915 230.625 500.915 230.625C500.915 230.625 511.585 242.633 510.257 271.33C508.929 300.027 511.924 338.393 511.924 338.393L507.887 339.518C504.487 340.653 500.869 340.981 497.32 340.477C493.77 339.972 490.387 338.649 487.437 336.612C482.11 332.929 475.363 329.064 470.232 328.717C460.226 328.053 451.216 322.377 451.216 322.377C451.216 322.377 455.555 312.036 448.884 278.667C442.213 245.298 459.215 221.583 459.215 221.583C459.215 221.583 460.558 228.844 464.67 224.602Z" fill="black"/>
<path d="M514.256 335.382L510.257 336.717L507.88 337.51C504.479 338.646 500.861 338.974 497.312 338.47C493.763 337.966 490.379 336.642 487.43 334.604C482.11 330.928 475.356 327.056 470.224 326.709C460.233 326.037 448.914 318.701 448.914 318.701C448.914 318.701 455.585 310.028 448.914 276.659C442.243 243.29 459.252 219.605 459.252 219.605C459.252 219.605 460.595 226.828 464.708 222.579C466.252 220.946 467.879 219.395 469.583 217.929C472.996 215.129 476.128 212.002 478.933 208.593C483.604 202.554 500.945 228.61 500.945 228.61C500.945 228.61 511.615 240.618 510.287 269.315C510.144 272.334 510.083 275.444 510.076 278.591C509.978 305.447 514.256 335.382 514.256 335.382Z" fill="#5E52AD"/>
<path opacity="0.1" d="M476.231 269.987L476.895 284.668C476.895 284.668 441.534 286.668 434.199 279.331C426.864 271.995 454.196 300.91 460.233 302.684C465.9 304.352 480.532 305.824 488.207 305.975C490.399 306.046 492.565 305.478 494.44 304.34C496.316 303.202 497.821 301.544 498.772 299.567C499.666 297.621 499.955 295.452 499.602 293.34C498.266 284.668 499.602 265.979 499.602 265.979L476.231 269.987Z" fill="black"/>
<path d="M476.231 268.651L476.895 283.332C476.895 283.332 441.534 285.332 434.199 277.995C426.864 270.659 400.324 272.281 400.845 277.995C401.177 281.663 418.858 293.34 429.52 294.012C440.183 294.684 454.196 299.575 460.233 301.348C465.9 303.016 480.532 304.488 488.207 304.639C490.399 304.71 492.565 304.142 494.44 303.004C496.316 301.866 497.821 300.208 498.771 298.231C499.666 296.286 499.955 294.116 499.602 292.004C498.266 283.332 499.602 264.643 499.602 264.643L476.231 268.651Z" fill="#F8BDC5"/>
<path opacity="0.1" d="M484.238 225.945C484.238 225.945 468.896 227.945 470.896 250.634C472.896 273.323 475.567 275.323 475.567 275.323C475.567 275.323 498.251 273.323 500.915 272.651C503.578 271.98 502.25 247.298 502.25 247.298C502.25 247.298 501.579 225.281 484.238 225.945Z" fill="black"/>
<path d="M484.238 225.281C484.238 225.281 468.896 227.281 470.896 249.97C472.896 272.659 475.567 274.659 475.567 274.659C475.567 274.659 498.251 272.659 500.915 271.987C503.578 271.315 502.25 246.634 502.25 246.634C502.25 246.634 501.579 224.602 484.238 225.281Z" fill="#5E52AD"/>
<path opacity="0.1" d="M478.563 196.252C477.514 190.968 479.665 189.338 480.231 182.575L445.518 202.592C445.518 202.592 449.495 206.925 454.015 212.487C456.035 212.998 458.112 213.252 460.195 213.242C469.289 213.28 474.262 203.513 478.563 196.252Z" fill="black"/>
<path d="M459.546 212.601C473.179 212.601 484.23 201.547 484.23 187.911C484.23 174.276 473.179 163.222 459.546 163.222C445.914 163.222 434.863 174.276 434.863 187.911C434.863 201.547 445.914 212.601 459.546 212.601Z" fill="#F8BDC5"/>
<path opacity="0.1" d="M465.772 180.416C461.999 182.817 461.946 188.244 464.376 192.002C466.806 195.761 470.994 198.245 475.024 200.584C476.193 201.264 477.484 201.966 478.797 201.815C479.806 201.618 480.741 201.145 481.498 200.449C484.318 198.248 487.009 195.886 489.558 193.376C493.225 189.768 496.749 185.323 496.176 180.288C495.527 174.574 489.882 170.272 487.603 164.86C485.687 160.332 486.26 155.252 484.585 150.625C482.91 145.998 477.039 141.719 472.647 144.141C471.024 145.032 470.043 146.625 468.685 147.825C465.319 150.799 459.894 151.093 455.291 149.734C450.687 148.376 449.322 142.828 442.9 142.813C446.092 143.938 448.25 147.266 447.759 150.301C445.186 151.757 441.805 150.927 438.704 150.874C435.603 150.821 431.912 152.557 432.448 155.35C432.916 157.614 436.184 159.298 435.701 161.562C430.032 164.549 423.853 166.444 417.484 167.147C416.33 167.276 424.419 174.001 425.34 174.446C428.713 176.061 432.765 177.246 436.335 178.484C446.031 181.828 455.962 183.02 465.772 180.416Z" fill="black"/>
<path d="M465.772 179.745C461.999 182.145 461.946 187.572 464.376 191.331C466.806 195.09 470.994 197.573 475.024 199.913C476.193 200.592 477.484 201.294 478.797 201.143C479.806 200.946 480.741 200.473 481.498 199.777C484.318 197.576 487.009 195.215 489.558 192.704C493.225 189.097 496.749 184.651 496.176 179.616C495.527 173.903 489.882 169.6 487.603 164.189C485.687 159.66 486.26 154.58 484.585 149.953C482.91 145.326 477.039 141.047 472.647 143.47C471.024 144.36 470.043 145.953 468.685 147.153C465.319 150.127 459.894 150.421 455.291 149.063C450.687 147.704 449.322 142.156 442.9 142.141C446.092 143.266 448.25 146.595 447.759 149.629C445.186 151.086 441.805 150.255 438.704 150.202C435.603 150.15 431.912 151.886 432.448 154.678C432.916 156.943 436.184 158.626 435.701 160.89C430.032 163.877 423.853 165.772 417.484 166.476C416.33 166.604 424.419 173.329 425.34 173.774C428.713 175.39 432.765 176.575 436.335 177.812C446.031 181.164 455.962 182.334 465.772 179.745Z" fill="#916168"/>
<path opacity="0.1" d="M495.164 422.273C496.236 424.744 496.609 427.461 496.244 430.13C494.244 446.146 464.889 456.819 456.883 458.812C452.664 459.868 448.069 457.4 446.145 454.434C447.382 457.921 452.71 461.355 457.554 460.148C465.561 458.147 494.915 447.467 496.915 431.466C497.352 428.292 496.737 425.063 495.164 422.273Z" fill="white"/>
<path d="M283.155 440.47C282.559 439.127 279.465 436.508 264.546 435.942C254.329 435.557 250.85 430.16 249.906 424.892C253.265 424.454 255.891 423.85 256.751 423.012C256.751 423.012 256.706 422.771 256.63 422.34L256.751 422.25C256.098 418.45 255.758 414.603 255.732 410.747C255.713 407.448 256.062 404.156 256.774 400.935C257.189 398.805 257.364 396.635 257.294 394.466C257.377 381.635 252.872 359.082 252.872 359.082L252.253 340.341C252.191 338.002 251.5 335.724 250.253 333.745C249.007 331.766 247.25 330.159 245.168 329.094C243.686 328.327 242.044 327.919 240.376 327.902C240.376 327.902 216.726 324.173 195.438 322.143C193.929 320.927 188.609 317.652 176.414 319.531L169.396 298.986C169.34 298.737 169.299 298.485 169.276 298.231C169.525 295.619 171.268 291.687 179.395 291.438L181.093 292.947C181.093 292.947 181.395 292.351 181.9 291.438C191.982 291.325 246.903 290.766 249.733 291.438C252.85 292.193 280.152 286.109 280.936 285.354C291.546 275.006 249.733 280.026 249.733 280.026C245.62 280.697 232.331 279.897 218.718 278.788C225.457 268.681 231.796 234.376 231.796 234.376C231.796 234.376 255.943 222.201 248.956 215.355C241.968 208.51 220.876 230.572 220.876 230.572C220.876 230.572 212.296 255.684 208.395 263.292C206.886 266.311 204.931 266.93 203.188 266.583C203.981 265.949 204.494 265.571 204.494 265.571C204.494 265.571 187.334 251.872 185.772 246.551C185.481 245.679 185.096 244.841 184.625 244.052C183.802 239.229 182.361 234.482 178.844 231.319C178.254 230.685 177.601 230.111 176.897 229.606C175.947 228.927 174.867 228.338 173.969 227.598C174.475 225.273 175.064 222.858 175.675 220.518C188.413 219.009 198.313 208.442 198.313 195.61C198.311 193.675 198.081 191.747 197.627 189.866C199.53 189.992 201.434 189.623 203.153 188.795C204.872 187.967 206.348 186.708 207.437 185.141C210.01 181.307 209.927 176.084 207.769 172.038C206.877 170.396 205.707 168.92 204.313 167.676C202.089 165.436 199.377 163.741 196.389 162.724C193.801 161.826 190.941 161.29 188.888 159.532C187.971 158.332 187.136 157.071 186.39 155.758C185.529 154.468 184.516 153.287 183.372 152.24C179.599 148.353 174.271 145.96 168.846 144.904C162.235 143.613 155.406 144.074 148.682 144.534C146.169 144.708 143.219 145.153 142.087 147.342C141.234 148.987 141.793 150.957 141.679 152.791C141.325 158.626 134.654 161.849 128.851 163.26C123.048 164.672 116.128 165.894 113.328 171.012C110.785 175.631 112.574 181.232 113.389 186.417C114.746 195.522 112.725 204.809 107.707 212.525C105.156 216.427 101.866 219.899 99.8509 224.088C97.6189 228.758 97.1006 234.065 98.387 239.078C98.7643 240.543 99.3076 242.037 99.036 243.532C98.7272 244.764 98.1209 245.902 97.2702 246.845C93.8002 251.131 89.4817 254.653 84.5859 257.19C79.6901 259.726 74.3228 261.223 68.8211 261.586C69.2831 263.118 70.186 264.481 71.417 265.503C72.9809 267.05 74.8047 268.31 76.805 269.225C82.0746 271.868 87.6158 273.931 93.3311 275.376C97.1796 276.35 101.202 277.044 105.118 276.38C109.035 275.716 112.853 273.474 114.46 269.927C115.396 267.873 115.532 265.549 116.362 263.458C118.015 259.276 122.112 256.567 124.882 252.982C123.949 262.22 123.508 271.502 123.561 280.788C123.561 283.694 123.561 286.313 123.561 288.743C123.561 299.227 122.806 306.458 116.309 319.554C115.535 320.93 115.195 322.509 115.336 324.082C115.194 324.932 115.277 325.805 115.574 326.613C115.872 327.422 116.375 328.139 117.034 328.694C116.581 331.306 116.361 333.953 116.377 336.604C116.286 346.145 119.509 358.954 136.593 362.199L167.012 360.69C167.012 360.69 209.912 352.319 221.608 358.425C222.574 358.631 223.439 359.161 224.062 359.927C224.684 360.693 225.024 361.65 225.027 362.637C224.991 363.271 224.892 363.901 224.732 364.516C224.407 366.494 224.283 368.499 224.363 370.502C224.31 383.333 227.072 412.453 227.072 412.453V424.801C225.125 427.73 222.725 432.062 223.035 435.255C223.035 435.323 223.035 435.398 223.035 435.466C223.035 435.534 223.035 435.655 223.08 435.745C223.125 435.836 223.08 435.911 223.133 435.995C223.186 436.078 223.178 436.153 223.201 436.236C223.223 436.319 223.261 436.417 223.299 436.5C223.336 436.583 223.352 436.636 223.382 436.704C223.412 436.772 223.48 436.9 223.533 436.991L223.623 437.149C223.714 437.295 223.815 437.433 223.925 437.564C227.826 442.093 247.318 450.856 253.566 450.501C260.199 450.124 282.423 451.256 283.208 441.369C283.307 441.074 283.288 440.752 283.155 440.47Z" fill="url(#paint1_linear)"/>
<path d="M227.706 421.359C227.706 421.359 218.65 432.681 222.423 437.21C226.196 441.738 245.062 450.396 251.099 450.041C257.513 449.664 279.019 450.796 279.774 440.984C279.774 440.984 281.283 436.455 261.663 435.7C242.043 434.945 248.08 414.566 248.08 414.566L227.706 421.359Z" fill="#594C76"/>
<path opacity="0.1" d="M119.795 326.256C119.795 326.256 110.74 357.202 137.906 362.486L167.336 360.976C167.336 360.976 208.84 352.674 220.159 358.712C220.159 358.712 224.687 359.467 223.178 365.505C221.669 371.543 225.442 412.302 225.442 412.302V425.888C225.442 425.888 251.099 425.888 254.117 422.869C254.117 422.869 251.853 410.792 254.117 400.98C256.381 391.168 250.344 360.222 250.344 360.222L249.748 341.593C249.704 339.292 249.047 337.043 247.845 335.08C246.644 333.116 244.94 331.509 242.911 330.423C241.483 329.665 239.894 329.262 238.278 329.245C238.278 329.245 186.964 320.943 168.853 322.452C150.742 323.962 119.795 326.256 119.795 326.256Z" fill="black"/>
<path d="M119.795 325.501C119.795 325.501 110.74 356.448 137.906 361.731L167.336 360.222C167.336 360.222 208.84 351.919 220.159 357.957C220.159 357.957 224.687 358.712 223.178 364.75C221.669 370.789 225.442 411.547 225.442 411.547V425.133C225.442 425.133 251.099 425.133 254.117 422.114C254.117 422.114 251.853 410.037 254.117 400.225C256.381 390.413 250.344 359.467 250.344 359.467L249.748 340.839C249.704 338.537 249.047 336.289 247.845 334.325C246.644 332.362 244.94 330.754 242.911 329.668C241.483 328.911 239.894 328.507 238.278 328.49C238.278 328.49 186.964 320.188 168.853 321.697C150.742 323.207 119.795 325.501 119.795 325.501Z" fill="#8B9CD1"/>
<path d="M197.521 264.364C197.521 264.364 203.558 271.912 207.331 264.364C211.104 256.816 219.405 231.908 219.405 231.908C219.405 231.908 239.779 210.019 246.571 216.812C253.363 223.605 229.969 235.682 229.969 235.682C229.969 235.682 221.669 281.724 214.122 282.479C206.576 283.233 195.257 282.479 195.257 282.479L191.484 274.176L197.521 264.364Z" fill="#F8BDC5"/>
<path opacity="0.05" d="M197.521 264.364C197.521 264.364 203.558 271.912 207.331 264.364C211.104 256.816 219.405 231.908 219.405 231.908C219.405 231.908 239.779 210.019 246.571 216.812C253.363 223.605 229.969 235.682 229.969 235.682C229.969 235.682 221.669 281.724 214.122 282.479C206.576 283.233 195.257 282.479 195.257 282.479L191.484 274.176L197.521 264.364Z" fill="black"/>
<path d="M170.355 226.624C170.355 226.624 183.938 242.475 185.447 247.758C186.956 253.042 203.558 266.628 203.558 266.628C203.558 266.628 191.484 275.686 193.748 280.214C196.012 284.743 177.901 265.119 177.901 265.119L156.772 234.172L170.355 226.624Z" fill="#EB6475"/>
<path opacity="0.1" d="M170.355 226.624C170.355 226.624 183.938 242.475 185.447 247.758C186.956 253.042 203.558 266.628 203.558 266.628C203.558 266.628 191.484 275.686 193.748 280.214C196.012 284.743 177.901 265.119 177.901 265.119L156.772 234.172L170.355 226.624Z" fill="black"/>
<path d="M179.41 208.51C179.41 208.51 172.619 230.398 172.619 238.701C172.619 247.004 143.943 236.437 144.698 231.908C145.452 227.379 161.299 210.774 162.054 203.981C162.809 197.188 179.41 208.51 179.41 208.51Z" fill="#F8BDC5"/>
<path opacity="0.1" d="M156.772 223.605C156.772 223.605 130.36 216.812 126.587 255.306C122.814 293.8 129.605 298.329 118.286 321.727C106.967 345.126 195.257 324.747 195.257 324.747C195.257 324.747 190.729 319.463 176.392 321.727L169.6 301.348C169.6 301.348 167.336 292.291 180.165 292.291C192.993 292.291 186.956 265.873 186.956 265.873C186.956 265.873 180.165 243.23 176.392 240.965C172.619 238.701 165.827 225.115 156.772 223.605Z" fill="black"/>
<path d="M156.772 222.096C156.772 222.096 130.36 215.303 126.587 253.797C122.814 292.291 129.605 296.82 118.286 320.218C106.967 343.616 195.257 323.237 195.257 323.237C195.257 323.237 190.729 317.954 176.392 320.218L169.6 299.839C169.6 299.839 167.336 290.781 180.165 290.781C192.993 290.781 186.956 264.364 186.956 264.364C186.956 264.364 180.165 241.72 176.392 239.456C172.619 237.191 165.827 223.605 156.772 222.096Z" fill="#EB6475"/>
<path d="M183.183 276.44C183.183 276.44 238.27 282.479 247.326 280.969C247.326 280.969 287.773 275.987 277.51 286.253C276.756 287.007 250.344 293.046 247.326 292.291C244.307 291.536 180.165 292.291 180.165 292.291L179.41 284.743L183.183 276.44Z" fill="#F8BDC5"/>
<path opacity="0.1" d="M140.925 257.571L180.919 293.8C180.919 293.8 188.466 278.705 190.729 278.705C192.993 278.705 163.563 234.172 163.563 234.172C163.563 234.172 156.017 225.115 151.489 229.644C146.962 234.172 133.379 231.153 140.925 257.571Z" fill="black"/>
<path d="M140.17 256.061L180.165 292.291C180.165 292.291 187.711 277.195 189.975 277.195C192.239 277.195 162.809 232.663 162.809 232.663C162.809 232.663 155.262 223.605 150.735 228.134C146.207 232.663 132.624 229.644 140.17 256.061Z" fill="#EB6475"/>
<path d="M172.619 222.096C186.372 222.096 197.521 210.944 197.521 197.188C197.521 183.432 186.372 172.28 172.619 172.28C158.865 172.28 147.716 183.432 147.716 197.188C147.716 210.944 158.865 222.096 172.619 222.096Z" fill="#F8BDC5"/>
<path opacity="0.1" d="M194.427 190.931C198.653 192.599 203.83 190.599 206.32 186.802C208.81 183.005 208.735 177.835 206.637 173.805C204.539 169.774 200.66 166.845 196.382 165.321C193.786 164.4 190.895 163.872 188.903 161.97C187.643 160.769 186.896 159.147 185.953 157.682C182.429 152.188 176.143 148.942 169.751 147.666C163.359 146.391 156.749 146.844 150.244 147.296C147.814 147.47 144.962 147.908 143.86 150.082C143.038 151.712 143.573 153.667 143.468 155.486C143.128 161.275 136.676 164.483 131.039 165.872C125.402 167.261 118.867 168.566 116.12 173.669C113.66 178.25 115.419 183.805 116.181 188.953C117.484 197.945 115.536 207.106 110.687 214.789C108.22 218.661 105.043 222.103 103.088 226.262C100.926 230.91 100.425 236.159 101.67 241.131C102.039 242.588 102.56 244.068 102.303 245.547C102.008 246.763 101.423 247.889 100.598 248.83C97.2908 253.063 93.1326 256.554 88.3921 259.079C83.6516 261.604 78.4342 263.106 73.0771 263.488C73.9374 266.726 77.069 268.772 80.0498 270.281C85.136 272.898 90.4963 274.943 96.0326 276.38C99.7528 277.346 103.647 278.033 107.435 277.376C111.223 276.72 114.913 274.493 116.49 270.976C117.396 268.938 117.532 266.636 118.331 264.552C120.135 259.88 124.942 257.057 127.523 252.763C129.99 248.657 130.949 248.174 131.575 243.434C132.201 238.693 133.582 233.576 137.476 230.791C141.551 227.87 147.286 228.428 151.814 230.67C156.342 232.912 159.141 232.036 162.922 235.327C169.554 241.09 176.977 245.873 184.964 249.532C184.21 242.95 182.995 235.606 177.652 231.689C176.143 230.564 174.233 229.704 173.434 227.983C172.158 225.243 174.339 221.899 173.351 219.039C172.362 216.178 168.604 215.122 166.936 212.525C165.518 210.321 165.903 207.325 167.231 205.06C168.559 202.796 170.657 201.12 172.747 199.535C174.603 198.131 176.485 196.76 178.391 195.422C180.114 194.328 181.661 192.979 182.979 191.421C183.734 190.387 184.232 188.123 185.281 187.391C187.922 185.564 191.982 189.972 194.427 190.931Z" fill="black"/>
<path d="M193.672 190.176C197.898 191.844 203.075 189.844 205.565 186.047C208.055 182.251 207.98 177.08 205.882 173.05C203.784 169.019 199.906 166.091 195.627 164.566C193.031 163.645 190.141 163.117 188.149 161.215C186.888 160.015 186.141 158.392 185.198 156.928C181.674 151.433 175.388 148.187 168.996 146.912C162.605 145.636 155.994 146.089 149.49 146.542C147.06 146.715 144.207 147.153 143.106 149.327C142.283 150.957 142.819 152.912 142.713 154.731C142.374 160.52 135.922 163.728 130.285 165.117C124.648 166.506 118.113 167.812 115.366 172.914C112.906 177.495 114.664 183.051 115.426 188.198C116.73 197.19 114.781 206.352 109.933 214.035C107.465 217.907 104.288 221.349 102.334 225.507C100.172 230.155 99.6708 235.404 100.915 240.377C101.285 241.833 101.805 243.313 101.549 244.792C101.253 246.008 100.668 247.134 99.8434 248.076C96.5362 252.308 92.378 255.8 87.6375 258.324C82.897 260.849 77.6796 262.351 72.3225 262.733C73.1828 265.971 76.3144 268.017 79.2952 269.527C84.3814 272.143 89.7417 274.189 95.278 275.625C98.9982 276.591 102.892 277.278 106.68 276.622C110.468 275.965 114.158 273.738 115.736 270.221C116.641 268.183 116.777 265.881 117.577 263.798C119.38 259.126 124.187 256.303 126.768 252.008C129.236 247.902 130.194 247.419 130.82 242.679C131.447 237.939 132.828 232.821 136.722 230.036C140.796 227.115 146.532 227.674 151.059 229.915C155.587 232.157 158.387 231.282 162.167 234.572C168.799 240.335 176.222 245.119 184.21 248.777C183.455 242.196 182.24 234.852 176.897 230.934C175.388 229.81 173.479 228.949 172.679 227.228C171.404 224.488 173.585 221.145 172.596 218.284C171.607 215.423 167.849 214.367 166.182 211.77C164.763 209.566 165.148 206.57 166.476 204.305C167.804 202.041 169.902 200.365 171.992 198.78C173.849 197.377 175.73 196.005 177.637 194.667C179.36 193.573 180.907 192.224 182.225 190.666C182.98 189.632 183.478 187.368 184.526 186.636C187.168 184.809 191.227 189.217 193.672 190.176Z" fill="#916168"/>
<g opacity="0.1">
<path opacity="0.1" d="M247.22 420.514C247.277 418.505 247.565 416.509 248.08 414.566L247.703 414.694C247.326 416.61 247.164 418.562 247.22 420.514Z" fill="white"/>
<path opacity="0.1" d="M251.099 448.531C245.062 448.886 226.196 440.229 222.423 435.7C221.928 435.087 221.623 434.342 221.548 433.557C221.437 434.193 221.458 434.845 221.608 435.474C221.759 436.102 222.036 436.693 222.423 437.21C226.196 441.738 245.062 450.396 251.099 450.041C257.513 449.664 279.02 450.796 279.774 440.984C279.831 440.713 279.793 440.431 279.669 440.184C277.94 449.226 257.355 448.162 251.099 448.531Z" fill="white"/>
</g>
<path d="M281.661 223.228H280.906V254.174H281.661V223.228Z" fill="#FFD77C" stroke="#FFAB50" stroke-width="0.25" stroke-miterlimit="10"/>
<path d="M282.415 223.228H281.661V254.174H282.415V223.228Z" fill="#FFD77C" stroke="#FFAB50" stroke-width="0.25" stroke-miterlimit="10"/>
<path d="M283.17 223.228H282.415V254.174H283.17V223.228Z" fill="#FFD77C" stroke="#FFAB50" stroke-width="0.25" stroke-miterlimit="10"/>
<path d="M283.925 223.228H283.17V254.174H283.925V223.228Z" fill="#FFD77C" stroke="#FFAB50" stroke-width="0.25" stroke-miterlimit="10"/>
<path d="M284.679 223.228H283.925V254.174H284.679V223.228Z" fill="#FFD77C" stroke="#FFAB50" stroke-width="0.25" stroke-miterlimit="10"/>
<path d="M285.434 223.228H284.679V254.174H285.434V223.228Z" fill="#FFD77C" stroke="#FFAB50" stroke-width="0.25" stroke-miterlimit="10"/>
<path d="M286.188 223.228H285.434V254.174H286.188V223.228Z" fill="#FFD77C" stroke="#FFAB50" stroke-width="0.25" stroke-miterlimit="10"/>
</g>
<defs>
<linearGradient id="paint0_linear" x1="443.632" y1="462.495" x2="443.632" y2="140.201" gradientUnits="userSpaceOnUse">
<stop stop-color="#808080" stop-opacity="0.25"/>
<stop offset="0.54" stop-color="#808080" stop-opacity="0.12"/>
<stop offset="1" stop-color="#808080" stop-opacity="0.1"/>
</linearGradient>
<linearGradient id="paint1_linear" x1="81864.2" y1="220230" x2="81864.2" y2="95811.7" gradientUnits="userSpaceOnUse">
<stop stop-color="#808080" stop-opacity="0.25"/>
<stop offset="0.54" stop-color="#808080" stop-opacity="0.12"/>
<stop offset="1" stop-color="#808080" stop-opacity="0.1"/>
</linearGradient>
<clipPath id="clip0">
<rect width="682" height="496" fill="white"/>
</clipPath>
</defs>
</svg>
